<svg xmlns:dc="http://purl.org/dc/elements/1.1/" xmlns:cc="http://creativecommons.org/ns#" xmlns:rdf="http://www.w3.org/1999/02/22-rdf-syntax-ns#" xmlns:svg="http://www.w3.org/2000/svg" xmlns="http://www.w3.org/2000/svg" xml:space="preserve" viewBox="0 0 98.861 98.861" height="512px" width="512px" y="0px" x="0px" id="Capa_1" version="1.1" enable-background="new 0 0 98.861 98.861"><metadata id="metadata51"><rdf:RDF><cc:Work rdf:about=""><dc:format>image/svg+xml</dc:format><dc:type rdf:resource="http://purl.org/dc/dcmitype/StillImage"/></cc:Work></rdf:RDF></metadata><defs id="defs49"/><rect y="-0.49423742" x="-0.52696413" height="99.77504" width="99.897736" id="rect3379" fill="#fff"/><g transform="matrix(0.71433803,0,0,0.71433803,13.596786,13.823784)" id="g3" fill="#006df0"><g id="g5" fill="#006df0"><path id="path7" d="m73.847 30.236-48.831 0c-1.562 0-2.836 1.263-2.836 2.828l0 9.628c0 1.565 1.274 2.828 2.836 2.828l48.831 0c1.559 0 2.832-1.263 2.832-2.828l0-9.628c0-1.565-1.275-2.828-2.832-2.828zm-46.56 6.706c-0.965 0-1.747-0.78-1.747-1.746 0-0.963 0.782-1.745 1.747-1.745 0.967 0 1.746 0.782 1.746 1.745 0 0.967-0.779 1.746-1.746 1.746zm41.944 5.034-12.336 0 0-4.097 12.337 0 0 4.097zM73.847 47.075l-48.831 0" fill="#006df0"/><path id="path9" d="m73.847 47.075-48.831 0c-1.562 0-2.836 1.265-2.836 2.83l0 9.627c0 1.563 1.274 2.829 2.836 2.829l48.831 0c1.559 0 2.832-1.266 2.832-2.829l0-9.627c0-1.565-1.275-2.83-2.832-2.83zm-46.56 6.708c-0.965 0-1.747-0.777-1.747-1.746 0-0.962 0.782-1.748 1.747-1.748 0.967 0 1.746 0.785 1.746 1.748 0 0.968-0.779 1.746-1.746 1.746zm41.944 5.033-12.336 0 0-4.098 12.337 0 0 4.098z" fill="#006df0"/><path id="path11" d="m73.847 63.915-48.831 0c-1.562 0-2.836 1.265-2.836 2.829l0 9.627c0 1.564 1.274 2.83 2.836 2.83l48.831 0c1.559 0 2.832-1.266 2.832-2.83l0-9.627c0-1.564-1.275-2.829-2.832-2.829zm-46.56 6.706c-0.965 0-1.747-0.775-1.747-1.746 0-0.964 0.782-1.744 1.747-1.744 0.967 0 1.746 0.779 1.746 1.744 0 0.971-0.779 1.746-1.746 1.746zm41.944 5.033-12.336 0 0-4.098 12.337 0 0 4.098z" fill="#006df0"/><polygon id="polygon13" points="40.994 90.404 22.778 90.404 22.778 96.863 40.994 96.863 40.994 98.861 57.864 98.861 57.864 96.863 76.079 96.863 76.079 90.404 57.864 90.404 57.864 88.409 52.66 88.409 52.66 80.838 46.204 80.838 46.204 88.409 40.994 88.409 " fill="#006df0"/><path id="path15" d="M78.253 14.706C77.554 14.647 76.912 14.29 76.496 13.727 72.581 8.44 66.304 5.179 59.624 5.179 59.206 5.179 58.787 5.192 58.368 5.217 57.788 5.252 57.218 5.079 56.755 4.729 52.688 1.662 47.76 0 42.602 0 33.36 0 25.157 5.354 21.323 13.461 20.971 14.204 20.269 14.72 19.455 14.834 9.269 16.267 1.405 25.039 1.405 35.613c0 10.081 7.147 18.519 16.641 20.526l0-6.234c0-0.777 0.144-1.518 0.383-2.215-5.077-1.669-8.757-6.448-8.757-12.076 0-7.011 5.704-12.715 12.716-12.715 0.354 0 0.702 0.028 1.049 0.056 2.021 0.157 3.849-1.154 4.342-3.114 1.709-6.814 7.806-11.573 14.822-11.573 4.01 0 7.805 1.548 10.685 4.36 0.984 0.96 2.383 1.369 3.729 1.088 0.859-0.179 1.736-0.27 2.609-0.27 4.909 0 9.293 2.76 11.44 7.202 0.755 1.562 2.405 2.492 4.132 2.314 0.43-0.043 0.859-0.064 1.275-0.064 7.012 0 12.717 5.704 12.717 12.715 0 5.629-3.682 10.407-8.758 12.076 0.238 0.698 0.382 1.438 0.382 2.215l0 6.233C90.305 54.131 97.456 45.694 97.456 35.612 97.455 24.643 88.991 15.612 78.253 14.706Z" fill="#006df0"/></g></g><g id="g17"/><g id="g19"/><g id="g21"/><g id="g23"/><g id="g25"/><g id="g27"/><g id="g29"/><g id="g31"/><g id="g33"/><g id="g35"/><g id="g37"/><g id="g39"/><g id="g41"/><g id="g43"/><g id="g45"/></svg>