<svg xmlns:dc="http://purl.org/dc/elements/1.1/" xmlns:cc="http://creativecommons.org/ns#" xmlns:rdf="http://www.w3.org/1999/02/22-rdf-syntax-ns#" xmlns:svg="http://www.w3.org/2000/svg" xmlns="http://www.w3.org/2000/svg" height="512px" width="512px" xml:space="preserve" viewBox="0 0 496.794 496.794" y="0px" x="0px" version="1.1" enable-background="new 0 0 496.794 496.794"><metadata><rdf:RDF><cc:Work rdf:about=""><dc:format>image/svg+xml</dc:format><dc:type rdf:resource="http://purl.org/dc/dcmitype/StillImage"/></cc:Work></rdf:RDF></metadata><rect y="-1.9676733" x="-0.33535233" height="501.38715" width="502.00372" fill="#fff"/><g transform="matrix(0.70606344,0,0,0.70606344,74.129335,73.228733)"><rect height="38.872002" width="130.17599" y="5.1129999" x="298.341" fill="#933ec5"/><rect height="38.958" width="130.127" y="96.750999" x="319.16901" fill="#933ec5"/><rect height="38.872002" width="130.159" y="50.601002" x="316.98599" fill="#933ec5"/><rect height="38.889999" width="130.21201" y="143.14101" x="292.73199" fill="#933ec5"/><path d="m271.091 133.005-118.15 0 5.268-35.906-58.023 0-65.744 223.237 160.894 0-0.086 176.458 58.279 0-0.231-234.412-119.072 0 11.131-76.739 125.786 0 0-0.017c0 0 0.152 0 0.238 0l0-52.621c-0.118 0-0.188 0-0.29 0z" fill="#933ec5"/><path d="m138.146 84.059c23.201 0 42.017-18.818 42.017-42.034C180.163 18.818 161.344 0 138.146 0 114.929 0 96.112 18.818 96.112 42.025c0 23.217 18.818 42.036 42.034 42.034z" fill="#933ec5"/><polygon points="350.874 496.794 350.874 237.02 462.352 237.02 462.352 196.937 192.334 196.937 192.334 237.02 303.231 237.02 303.231 496.794 " fill="#933ec5"/><polygon points="125.463 356.405 184.101 356.405 184.101 335.268 41.992 335.268 41.992 356.405 100.356 356.405 100.356 496.794 125.463 496.794 " fill="#933ec5"/></g></svg>